name D:\school\WTK\thesis\model\3dpredictsim\Results\MidTarsalJoint\Fal_s1_bCst_PF_Natali2010_ls150_MT_k100_MTP_T2_ig24.mot
datacolumns 128
datarows 4
range 0.58143973 0.61632611
endheader
time	pelvis_tilt	pelvis_list	pelvis_rotation	pelvis_tx	pelvis_ty	pelvis_tz	hip_flexion_l	hip_adduction_l	hip_rotation_l	hip_flexion_r	hip_adduction_r	hip_rotation_r	knee_angle_l	knee_angle_r	ankle_angle_l	ankle_angle_r	subtalar_angle_l	subtalar_angle_r	mtj_angle_l	mtj_angle_r	mtp_angle_l	mtp_angle_r	lumbar_extension	lumbar_bending	lumbar_rotation	arm_flex_l	arm_add_l	arm_rot_l	arm_flex_r	arm_add_r	arm_rot_r	elbow_flex_l	elbow_flex_r	pro_sup_l	pro_sup_r	glut_med1_l/activation	glut_med2_l/activation	glut_med3_l/activation	glut_min1_l/activation	glut_min2_l/activation	glut_min3_l/activation	semimem_l/activation	semiten_l/activation	bifemlh_l/activation	bifemsh_l/activation	sar_l/activation	add_long_l/activation	add_brev_l/activation	add_mag1_l/activation	add_mag2_l/activation	add_mag3_l/activation	tfl_l/activation	pect_l/activation	grac_l/activation	glut_max1_l/activation	glut_max2_l/activation	glut_max3_l/activation	iliacus_l/activation	psoas_l/activation	quad_fem_l/activation	gem_l/activation	peri_l/activation	rect_fem_l/activation	vas_med_l/activation	vas_int_l/activation	vas_lat_l/activation	med_gas_l/activation	lat_gas_l/activation	soleus_l/activation	tib_post_l/activation	flex_dig_l/activation	flex_hal_l/activation	tib_ant_l/activation	per_brev_l/activation	per_long_l/activation	per_tert_l/activation	ext_dig_l/activation	ext_hal_l/activation	ercspn_l/activation	intobl_l/activation	extobl_l/activation	glut_med1_r/activation	glut_med2_r/activation	glut_med3_r/activation	glut_min1_r/activation	glut_min2_r/activation	glut_min3_r/activation	semimem_r/activation	semiten_r/activation	bifemlh_r/activation	bifemsh_r/activation	sar_r/activation	add_long_r/activation	add_brev_r/activation	add_mag1_r/activation	add_mag2_r/activation	add_mag3_r/activation	tfl_r/activation	pect_r/activation	grac_r/activation	glut_max1_r/activation	glut_max2_r/activation	glut_max3_r/activation	iliacus_r/activation	psoas_r/activation	quad_fem_r/activation	gem_r/activation	peri_r/activation	rect_fem_r/activation	vas_med_r/activation	vas_int_r/activation	vas_lat_r/activation	med_gas_r/activation	lat_gas_r/activation	soleus_r/activation	tib_post_r/activation	flex_dig_r/activation	flex_hal_r/activation	tib_ant_r/activation	per_brev_r/activation	per_long_r/activation	per_tert_r/activation	ext_dig_r/activation	ext_hal_r/activation	ercspn_r/activation	intobl_r/activation	extobl_r/activation	
          0.58143973	         -2.93017059	          2.27587764	         -6.28992638	          0.72679966	          0.91591292	          0.00278175	         29.05503544	          3.36541992	         -2.79418639	        -16.47840640	         -1.41847194	          6.51279057	         -9.25715616	         -9.42014108	          5.44538608	         -3.70824325	         -7.59634880	          8.54231457	         -0.19832219	         10.20580203	         -0.87021055	          1.80611221	         -1.67092782	         -0.30607657	          2.47922093	         -6.71528886	        -13.49961661	          6.26353471	          5.14478357	        -13.45195967	         15.91244942	         16.80608409	         36.79366519	         86.51662706	         86.51662706	          0.05000007	          0.05000019	          0.06472432	          0.05000020	          0.05000024	          0.05000030	          0.20800132	          0.08430424	          0.12679945	          0.08007193	          0.05973718	          0.12129972	          0.26445691	          0.27040351	          0.17031943	          0.09306131	          0.05000083	          0.07157905	          0.12451750	          0.05000563	          0.08969517	          0.13896429	          0.07122158	          0.07125985	          0.55283324	          0.15141117	          0.07818954	          0.07123761	          0.05978868	          0.05976498	          0.05972949	          0.06896850	          0.07125983	          0.06420746	          0.05969137	          0.05756965	          0.05969480	          0.40355884	          0.17784222	          0.22109690	          0.17922503	          0.38957518	          0.18282802	          0.05000003	          0.11469345	          0.09721995	          0.20917460	          0.09802859	          0.06960091	          0.22310604	          0.16184504	          0.10157833	          0.05012038	          0.05001670	          0.05002580	          0.05000109	          0.10240885	          0.05766390	          0.05003011	          0.05968688	          0.05044081	          0.05976940	          0.28021795	          0.05002211	          0.05003233	          0.05006216	          0.05005702	          0.05018395	          0.39834538	          0.64540212	          0.05000449	          0.05018112	          0.05970601	          0.29229982	          0.06364575	          0.12185957	          0.12141145	          0.26866070	          0.36501419	          0.35544981	          0.24791017	          0.20393628	          0.27759583	          0.05000040	          0.05000069	          0.13604908	          0.05000118	          0.05000035	          0.05000156	          0.05000018	          0.07125964	          0.07125832	
          0.59306852	         -2.92904700	          2.36535370	         -6.60711956	          0.74449291	          0.91485526	          0.00262613	         28.41289188	          3.62667538	         -2.51095276	        -16.60357804	         -1.75815817	          6.34129825	        -10.03094397	        -10.92874115	          4.79682850	         -4.03795788	         -7.88800261	          9.38737030	         -0.39337533	          8.88154984	         -0.80002004	          3.54865388	         -1.44237170	         -0.48489913	          2.54183810	         -7.66071064	        -13.49659843	          6.30876242	          4.86615322	        -13.45158135	         16.25886745	         16.35455091	         37.98722627	         86.51662706	         86.51662706	          0.21043403	          0.17775956	          0.17290256	          0.21868750	          0.11802182	          0.18620167	          0.17423287	          0.07772343	          0.10621404	          0.08968909	          0.05010986	          0.10160718	          0.22152312	          0.22650436	          0.14266918	          0.11032504	          0.05000215	          0.05996548	          0.10433016	          0.05000215	          0.09266142	          0.11640473	          0.05968925	          0.05969118	          0.46308197	          0.12683037	          0.16634559	          0.05967237	          0.05008225	          0.05006240	          0.05003265	          0.05777166	          0.05969105	          0.05378354	          0.05000076	          0.05000162	          0.05000401	          0.47482831	          0.33046200	          0.18520286	          0.29341568	          0.48982241	          0.15314712	          0.05000037	          0.15243078	          0.08143652	          0.27588482	          0.08211516	          0.05830637	          0.23465543	          0.13557112	          0.08508776	          0.05001129	          0.05000132	          0.05000113	          0.05000134	          0.08579849	          0.05000137	          0.05000311	          0.05000375	          0.05001148	          0.05006709	          0.30900414	          0.05002383	          0.05000662	          0.05011895	          0.05007167	          0.05003005	          0.33858621	          0.64821856	          0.05000660	          0.05001496	          0.05001336	          0.24497287	          0.10508108	          0.10208769	          0.10170602	          0.22504426	          0.30575527	          0.31723525	          0.22374496	          0.17083269	          0.23253835	          0.05000022	          0.06906091	          0.15481190	          0.05000093	          0.05000033	          0.05000123	          0.05000015	          0.05969079	          0.05968979	
          0.60469732	         -2.92655608	          2.45499117	         -6.87909869	          0.76234209	          0.91393942	          0.00244590	         27.74564098	          3.85663733	         -2.23180295	        -16.66648102	         -2.09520612	          6.18130029	        -10.75242204	        -12.50757836	          4.10330156	         -4.44947683	         -8.17993727	         10.19303177	         -0.29622699	          7.25392317	         -0.76372076	          5.69407598	         -1.21350147	         -0.67656775	          2.59590020	         -8.59607500	        -13.49398578	          6.38966245	          4.53383044	        -13.45265166	         16.55627923	         15.95488711	         39.11874646	         86.51662706	         86.51662706	          0.29353321	          0.28716000	          0.29866321	          0.18321696	          0.20980964	          0.20895145	          0.14594658	          0.06510574	          0.08897053	          0.07512846	          0.05000183	          0.08511160	          0.18555945	          0.18973234	          0.11950945	          0.13495695	          0.05000534	          0.05023211	          0.08739332	          0.18191103	          0.15683761	          0.13228013	          0.05000040	          0.05000077	          0.38790168	          0.10624016	          0.13934155	          0.05000060	          0.05011170	          0.05977579	          0.08075370	          0.05000016	          0.05000066	          0.05000006	          0.05000043	          0.05000169	          0.05000146	          0.53217050	          0.29785672	          0.19822847	          0.39041955	          0.49177823	          0.26117406	          0.07045720	          0.12768402	          0.06821549	          0.23816630	          0.06878453	          0.05017365	          0.27970412	          0.11356209	          0.07127430	          0.05000653	          0.05000065	          0.05000055	          0.05000104	          0.07193341	          0.05000347	          0.05000123	          0.05000185	          0.05000426	          0.05000172	          0.28810857	          0.05002503	          0.05000493	          0.05004691	          0.05001695	          0.05000497	          0.29160167	          0.63266470	          0.05000283	          0.05003512	          0.05000786	          0.20520375	          0.15136995	          0.08567701	          0.14476276	          0.18850879	          0.25611660	          0.26573278	          0.19303187	          0.14309965	          0.19478744	          0.05000012	          0.07198132	          0.16284079	          0.05000062	          0.05000053	          0.05000057	          0.05781956	          0.05000015	          0.05000012	
          0.61632611	         -2.92295227	          2.53833391	         -7.10568911	          0.78019491	          0.91327455	          0.00223185	         27.12849983	          4.09680097	         -1.96386677	        -16.63559304	         -2.41953005	          6.03890739	        -11.54970264	        -14.17499346	          3.40262962	         -4.99226445	         -8.46568536	         10.95935555	         -0.34898019	          5.34083023	         -0.74804600	          8.18603274	         -0.99569256	         -0.87659490	          2.64261887	         -9.49057909	        -13.48730026	          6.48297601	          4.18238764	        -13.45441066	         16.83856682	         15.59487839	         40.14475524	         86.51662706	         86.51662706	          0.35757852	          0.33925131	          0.34952982	          0.15354598	          0.17582410	          0.17715533	          0.12225257	          0.06311443	          0.07530329	          0.06293183	          0.05000266	          0.07129413	          0.15543463	          0.15893118	          0.13258536	          0.16709610	          0.05000113	          0.05000962	          0.07320846	          0.23036006	          0.19689323	          0.17220214	          0.05000043	          0.05000041	          0.32492681	          0.08899282	          0.11672563	          0.05000031	          0.10706727	          0.11362551	          0.09368324	          0.05000015	          0.05000030	          0.05000005	          0.05000017	          0.05000052	          0.05000052	          0.57617594	          0.28573327	          0.17796414	          0.46071036	          0.54299907	          0.26200300	          0.08028210	          0.10695482	          0.05714091	          0.27435152	          0.05761785	          0.05000049	          0.24374220	          0.09512589	          0.05970332	          0.05001264	          0.05000100	          0.05000089	          0.05000108	          0.06025824	          0.07276457	          0.05000672	          0.05000345	          0.05000843	          0.05000362	          0.24134062	          0.06023111	          0.05000604	          0.05001372	          0.05000535	          0.05000314	          0.24426091	          0.59725178	          0.05000074	          0.05000279	          0.05000087	          0.17188941	          0.12708100	          0.14468019	          0.12127128	          0.15790478	          0.21453663	          0.22259160	          0.16169395	          0.11986825	          0.16316451	          0.05229378	          0.07713482	          0.15849142	          0.05014806	          0.10249268	          0.05004516	          0.07081069	          0.05000007	          0.05000015	
